<?xml version="1.0" encoding="UTF-8"?><svg id="Layer_2" xmlns="http://www.w3.org/2000/svg" viewBox="0 0 863.78 795.97"><defs><style>.cls-1{fill-rule:evenodd;stroke:#373737;stroke-miterlimit:10;}.cls-2{font-family:Brolink-DEMO, 'Brolink DEMO';font-size:130px;}</style></defs><g id="Layer_1-2"><text class="cls-2" transform="translate(62.59 644.93)"><tspan x="0" y="0">Ayman</tspan></text><text class="cls-2" transform="translate(50.95 765.95)"><tspan x="0" y="0">oualifi</tspan></text><path class="cls-1" d="M95.06,311.77l45.81,3.49,15.14,50.86-34.94,30.67c-29.51-5.82-59.01-7.77-88.13-6.21l-1.55-8.15,67.94-22.13c.78,.78,1.55,1.55,2.72,1.94h0c3.88,1.94,8.54,.39,10.48-3.49s.39-8.93-3.49-10.87-8.54-.39-10.48,3.49c-.78,1.16-.78,2.72-.78,3.88l-67.56,22.13-3.11-8.93c24.85-15.92,47.76-34.55,67.94-56.69h0Zm60.96,0l14.75,48.92-4.27,1.16-4.27,1.16-14.75-48.92,4.27-1.16,4.27-1.16h0ZM20.52,392.53c7.77,21.35,19.41,19.8,36.11,17.47,13.98-1.94,30.28-3.88,50.47,2.72,3.49-3.88,9.32-5.05,14.37-2.72,5.82,3.11,8.15,10.48,5.05,16.7-3.11,6.21-10.48,8.54-16.31,5.44-4.27-2.33-6.6-6.6-6.6-10.87-18.25-5.82-33.39-3.88-46.2-1.94-21.35,2.72-36.5,5.05-45.81-24.07-1.55,0-3.11-.39-4.66-1.16h0c-5.82-3.11-8.15-10.48-5.05-16.7,3.11-6.21,10.48-8.54,16.31-5.44s8.15,10.48,5.05,16.7h0c0,1.16-1.16,2.72-2.72,3.88h0Z"/><path id="path2186" d="M560.97,447.27c-2.33-3.88-4.27-7.77-5.05-8.54-.78-1.94-18.25-22.52-21.74-25.62-1.16-1.16-4.27-1.94-7.38-1.94h-5.05l4.66,15.92c3.49,11.65,3.88,15.92,2.33,16.31-2.33,.78-6.21-4.66-14.37-19.02-2.72-4.66-4.66-6.99-4.66-5.44,0,5.82-5.05,3.49-9.32-4.27-2.72-4.66-5.82-7.77-6.99-7.38s-3.49-1.94-4.66-5.44c-2.33-5.82-2.72-6.21-9.32-3.49-6.21,2.33-29.12,16.7-37.66,24.07-2.33,1.94-5.05,2.72-7.38,1.94-1.94-.39-8.93,.39-15.14,2.33-37.27,11.26-43.1,12.04-47.37,8.54-3.11-2.72-6.21-3.11-10.87-1.55-3.88,1.16-10.48,.78-15.53-.39-5.05-1.16-10.48-1.55-13.2-.78-2.33,.78-4.66,.39-5.05-.78s-1.94-1.55-3.11-1.16c-1.55,.39-4.66-.39-6.99-1.55-2.33-1.16-9.71-3.88-15.92-5.44-11.26-3.11-11.65-3.11-13.2,1.55-.78,2.33-.78,6.21-.39,8.54,1.94,6.21-3.11,26.4-8.54,34.17-2.72,3.88-4.66,10.09-5.05,14.37-.39,12.04-10.09,15.14-11.26,3.88-.78-7.77-5.05-6.6-11.26,3.49-5.05,8.54-6.99,9.71-8.15,5.44-1.16-3.88-2.72-3.11-8.15,3.49-2.72,3.11-5.44,5.44-5.82,5.05-1.94-1.16-6.6-19.02-6.21-23.3,0-2.33,1.55-6.99,3.11-10.48,5.44-12.81,21.74-67.56,20.58-71.05-.39-.78,.78-3.49,2.33-5.44,2.72-3.88,2.72-9.32-.39-8.54-.78,.39-3.88-2.72-6.21-6.21-2.72-3.49-6.6-7.38-8.15-8.54-1.94-1.16-3.88-3.11-4.27-4.27-.39-1.55-3.11-5.82-5.82-9.71l-5.05-6.99-17.08,4.66c-9.32,2.72-21.74,7.38-27.95,10.48-7.77,3.88-11.26,5.05-12.04,3.49-.78-1.16-4.27-1.55-7.77-1.55-10.87,.78-12.81-7.77-2.33-10.48,1.94-.78,4.66-2.72,5.82-4.66s3.88-4.27,6.21-5.05c3.11-.78,4.27-2.33,3.49-5.05-1.16-3.49-6.21-5.44-14.37-5.82-2.72,0-5.05-1.94-6.6-5.44-1.55-2.72-3.49-5.05-5.05-4.66-8.54,2.72-12.04,2.72-13.2-.78-1.55-5.05,3.88-7.77,33.39-17.08,38.83-12.04,37.66-11.26,34.94-29.12-.78-5.44-.78-12.42,0-15.53s.78-7.77-.39-10.09c-1.16-2.33-1.16-6.99-.39-10.09,.78-3.11,1.16-8.15,.78-11.26-.39-3.11,0-7.77,.39-10.48s1.55-9.32,2.72-15.14,4.27-16.7,7.77-24.85c3.11-7.77,6.99-17.86,8.15-22.13,1.16-4.27,3.49-8.54,5.05-9.71s2.72-2.72,2.33-3.88,1.55-2.33,3.88-3.11,4.27-1.94,3.88-2.72c-2.33-5.05-1.55-8.54,1.55-9.32,1.94-.39,6.99-4.27,10.87-8.54,11.65-11.65,29.51-24.85,38.05-27.57,4.27-1.55,14.37-6.21,22.13-10.09,8.54-4.66,17.47-7.77,22.91-8.54,8.54-1.16,10.09-2.72,9.71-10.09,0-3.49-5.05-31.06-6.6-37.27-.39-2.33-.78-5.44,0-7.38,.78-2.72,1.55-3.11,4.27-1.55,2.72,1.55,3.88,.78,6.21-3.49,3.88-7.38,6.21-7.38,8.93-.39,1.16,3.49,2.72,6.6,3.49,7.38,2.33,2.33,5.44-3.88,4.27-7.77-.78-3.11,3.49-13.59,5.82-14.37,.39,0,3.11,7.77,5.82,17.47,3.11,11.26,5.44,17.47,6.6,17.08,2.72-.78,13.98,19.41,14.75,26.01,.39,3.49,1.16,5.44,2.72,5.05,1.16-.39,2.72,1.55,3.49,4.27,1.16,3.88,2.33,4.66,5.44,3.88,13.98-3.88,45.81,5.82,48.53,14.37,.78,3.11,2.33,3.88,4.66,2.72,4.27-1.94,14.37-.39,14.75,1.94,.39,1.16,2.72,1.94,5.44,2.33s5.44,1.94,5.82,3.11,3.49,4.66,6.6,6.99c3.49,2.33,6.21,5.44,6.6,6.6,.39,1.16,5.05,5.05,10.09,8.54,9.32,6.21,11.65,9.32,26.01,32.61,7.77,12.81,20.19,41.93,20.58,48.53,0,3.88,1.16,3.88,15.14,1.16,23.68-4.66,33.39-5.82,36.88-3.88,2.33,1.16,10.48,0,24.46-3.49,16.31-3.88,24.07-3.49,26.4-2.33-6.6,6.21-2.33,1.55-10.48,10.87-8.54,4.27-16.7,7.77-32.61,11.65-11.65,2.72-28.73,7.77-37.27,10.87-15.14,5.82-15.92,6.21-15.92,11.65,0,3.11-1.55,10.48-3.11,16.7-1.55,6.21-2.72,14.37-2.72,18.64,0,14.37-2.33,27.18-6.21,34.94-2.33,4.27-4.27,10.87-4.66,14.37-.39,3.88-1.94,7.38-3.11,8.54-1.16,1.16-3.88,3.88-5.05,6.6-2.33,3.88-1.94,5.82,.78,10.87,1.94,3.11,6.21,12.81,9.71,20.97,3.49,8.15,8.54,19.8,11.26,25.24,6.21,12.81,12.04,29.9,15.14,45.81,.78,13.59-1.55,16.69-8.15,6.6h0Zm-150.26-57.07c-.39-1.16,1.94-2.72,5.05-3.49s7.38-3.49,9.71-5.82,5.82-4.27,8.15-4.27c4.66,0,27.18-14.75,27.95-18.25,.39-1.16-1.16-5.82-3.49-9.71-2.72-5.05-3.49-7.77-2.33-8.93,3.11-2.33-.39-8.93-4.27-8.93-1.94,0-3.88-.39-4.27-1.16,0-.78-2.72-6.6-5.82-13.2-8.93-20.19-16.7-38.44-17.86-42.32-.78-3.11-1.94-3.11-8.93,0-6.99,3.11-24.07,8.15-60.96,18.25-14.75,3.88-30.28,10.48-29.9,12.42,0,.78-1.16,3.11-3.49,5.05-1.94,1.94-3.49,5.82-3.49,9.32,0,3.11-1.16,8.93-3.11,12.81s-2.72,7.77-1.94,8.93,.78,4.27-.39,6.99c-3.11,7.77-8.54,26.01-7.77,27.95,.78,2.33,12.81,7.38,15.14,6.6,1.16-.39,1.94,.39,2.33,1.55,.78,3.11,19.8,6.99,33.39,6.6,6.6,0,15.53,.78,19.02,1.94,3.88,1.16,9.71,1.55,13.2,.78s7.38-.78,8.54-.39c1.94,.78,8.15,.78,13.98,0,1.16-.78,1.94-1.55,1.55-2.72h0Zm100.56-104.44c1.94-4.27,3.11-9.32,2.33-12.42-.78-2.72-.78-5.05,0-5.44s1.16-5.05,.78-11.26-.39-12.04,.39-13.98c1.16-2.72-2.33-2.33-17.47,2.33-22.13,6.21-22.91,7.38-12.42,20.97,3.88,5.05,7.38,10.48,7.77,12.81s3.11,8.54,6.21,14.37l5.05,10.48,1.94-5.82c1.16-1.94,3.49-7.77,5.44-12.04h0Zm-251.98,46.59c3.49-8.93,3.11-9.71-3.49-8.15-5.82,1.55-6.21,1.94-3.49,5.82,1.55,2.33,2.72,5.05,2.33,5.82s0,1.16,1.16,1.16c.78-.39,2.33-2.33,3.49-4.66h0Zm125.02-89.69c19.02-5.82,20.19-6.21,18.64-9.71-.78-1.94-4.27-11.65-7.38-20.97-7.77-22.52-10.09-28.34-13.59-31.84-1.55-1.94-3.11-5.82-3.11-10.48-.78-8.15-9.32-36.5-12.81-41.54-2.72-3.88-5.44-.39-8.54,12.42-1.16,5.05-3.49,11.65-5.05,14.75-2.72,5.44-5.05,18.64-5.82,31.45,0,3.88-3.11,14.75-6.6,24.07-3.49,9.32-5.44,17.86-4.66,19.41,.78,1.16,1.16,4.27,0,6.21-1.55,3.88-5.05,19.8-4.66,21.35s15.92-1.94,24.46-5.44c5.05-1.94,17.86-6.21,29.12-9.71h0Zm128.9-36.88c1.16-1.94-5.05-19.02-6.99-19.8-3.49-1.16-6.99-10.87-5.05-13.59,1.94-3.11-1.55-6.6-19.8-17.86-5.82-3.88-12.04-9.32-13.59-12.42-1.55-3.11-4.66-6.6-7.38-7.77-2.33-1.16-5.05-4.27-5.44-6.6-1.16-3.49-1.94-3.88-6.6-1.94s-6.6,1.55-15.14-3.88c-10.87-6.99-16.31-9.71-18.25-9.32-.78,0-3.88-.78-6.6-2.33-7.77-3.49-9.32,0-3.49,7.77,2.72,3.49,7.77,14.75,12.04,27.95,7.77,22.91,15.14,38.83,24.07,51.25,2.72,3.88,5.82,10.09,6.99,13.98,3.11,9.71,5.44,11.26,16.31,10.09,9.32-1.55,47.76-13.59,48.92-15.53h0Zm-232.57,60.18c.39-2.33,2.72-8.93,5.44-14.37,2.33-5.44,4.27-10.87,3.88-12.42-.39-1.16,0-2.33,1.16-2.72,1.16-.39,1.55-1.55,1.16-3.11-.39-1.55,1.16-6.21,3.11-10.87,1.94-4.66,4.27-13.2,5.05-18.64,.78-5.82,3.11-16.7,5.05-24.07,2.33-7.77,3.49-14.75,2.72-16.31-1.16-2.33,2.72-17.08,6.99-25.24,1.16-2.33,2.72-7.38,3.11-10.87l1.16-6.6-8.15,3.49c-4.66,1.94-12.42,6.21-17.86,9.71-5.44,3.11-12.04,6.99-14.75,8.54-12.42,6.21-11.65,5.44-22.13,23.68-1.94,3.88-5.05,7.77-6.6,8.93-1.55,1.16-2.33,3.49-1.94,5.05s-.78,3.49-2.72,3.88-3.11,2.33-2.72,3.88c.39,1.55-1.16,7.38-3.49,12.81s-3.88,11.65-3.88,13.98c.39,2.33,0,6.99-.39,10.09-2.72,13.2-2.33,24.07,1.55,39.99l3.88,17.08,19.8-5.82c17.47-5.44,19.41-6.6,20.58-10.09h0Z"/></g></svg>